<svg xmlns="http://www.w3.org/2000/svg" xmlns:xlink="http://www.w3.org/1999/xlink" width="79.83" height="100.771" viewBox="0 0 79.83 100.771">
  <defs>
    <linearGradient id="linear-gradient" x1="0.5" x2="0.5" y2="1" gradientUnits="objectBoundingBox">
      <stop offset="0" stop-color="#f75c03"/>
      <stop offset="0.382" stop-color="#ff7600"/>
      <stop offset="1" stop-color="#faed27"/>
    </linearGradient>
  </defs>
  <g id="Path_284" data-name="Path 284" transform="translate(-2241.595 -11307.486)" fill="url(#linear-gradient)">
    <path d="M 2245.2080078125 11406.2578125 C 2244.93408203125 11406.2578125 2244.60791015625 11406.1884765625 2244.265625 11405.67578125 C 2243.85302734375 11405.0576171875 2243.615234375 11404.07421875 2243.595703125 11402.9072265625 C 2243.577880859375 11401.8310546875 2244.155517578125 11396.9111328125 2247.0087890625 11379.580078125 C 2248.978759765625 11367.6142578125 2251.459228515625 11353.2158203125 2253.270263671875 11342.703125 C 2254.325927734375 11336.5751953125 2255.15966796875 11331.7353515625 2255.64013671875 11328.8544921875 C 2256.12890625 11325.9208984375 2256.916748046875 11324.5107421875 2257.49169921875 11323.8447265625 C 2258.004150390625 11323.2509765625 2258.54541015625 11322.986328125 2259.246337890625 11322.986328125 C 2260.847900390625 11322.986328125 2262.724365234375 11324.3486328125 2263.329833984375 11324.8876953125 L 2287.590576171875 11347.705078125 L 2289.35791015625 11349.3671875 L 2290.65234375 11347.3154296875 C 2290.845458984375 11347.0087890625 2310.025634765625 11316.625 2314.3642578125 11311.751953125 C 2315.850341796875 11310.0810546875 2317.1533203125 11309.486328125 2317.877197265625 11309.486328125 C 2318.177978515625 11309.486328125 2318.3935546875 11309.583984375 2318.597900390625 11309.8115234375 C 2318.868896484375 11310.1142578125 2319.721923828125 11311.3837890625 2319.32080078125 11315.0166015625 C 2318.820068359375 11319.548828125 2316.731689453125 11336.201171875 2314.5986328125 11351.978515625 C 2310.81640625 11379.953125 2309.606689453125 11385.2470703125 2309.26220703125 11386.224609375 C 2308.666748046875 11387.9130859375 2307.92236328125 11389.22265625 2307.0498046875 11390.1181640625 C 2306.168701171875 11391.021484375 2305.18408203125 11391.4609375 2304.039306640625 11391.4609375 C 2302.5654296875 11391.4609375 2300.798095703125 11390.7587890625 2298.78662109375 11389.373046875 C 2291.439697265625 11384.3134765625 2275.87109375 11367.7666015625 2275.714599609375 11367.599609375 L 2273.922607421875 11365.69140625 L 2272.55224609375 11367.921875 C 2272.50244140625 11368.0029296875 2267.49365234375 11376.154296875 2261.988037109375 11384.7353515625 C 2252.392822265625 11399.69140625 2249.26025390625 11403.548828125 2248.246826171875 11404.5166015625 C 2246.60302734375 11406.087890625 2245.573974609375 11406.2578125 2245.2080078125 11406.2578125 Z" stroke="none"/>
    <path d="M 2245.71826171875 11403.9892578125 C 2246.010498046875 11403.806640625 2246.39892578125 11403.5166015625 2246.864990234375 11403.0712890625 C 2247.62890625 11402.3408203125 2250.467041015625 11398.98828125 2260.301513671875 11383.66015625 C 2265.796875 11375.095703125 2270.79833984375 11366.95703125 2270.84814453125 11366.875 L 2273.58837890625 11362.4140625 L 2277.172607421875 11366.23046875 C 2277.211669921875 11366.2724609375 2281.12548828125 11370.4365234375 2285.917236328125 11375.189453125 C 2292.158935546875 11381.3798828125 2297.001220703125 11385.71484375 2299.92138671875 11387.7255859375 C 2301.545654296875 11388.8447265625 2303.008056640625 11389.4609375 2304.0390625 11389.4609375 C 2304.46337890625 11389.4609375 2304.982666015625 11389.373046875 2305.61767578125 11388.7216796875 C 2306.276611328125 11388.0458984375 2306.884765625 11386.9521484375 2307.375732421875 11385.560546875 C 2307.50048828125 11385.2041015625 2308.017822265625 11383.318359375 2309.4462890625 11374.00390625 C 2310.32275390625 11368.2880859375 2311.390625 11360.7783203125 2312.6201171875 11351.68359375 C 2314.91064453125 11334.740234375 2316.90576171875 11318.6640625 2317.3330078125 11314.7978515625 C 2317.498046875 11313.3017578125 2317.4140625 11312.3505859375 2317.300537109375 11311.7900390625 C 2316.93212890625 11312.0302734375 2316.433837890625 11312.4345703125 2315.858154296875 11313.0810546875 C 2312.347900390625 11317.0244140625 2297.694091796875 11339.900390625 2292.34375 11348.3818359375 L 2289.755126953125 11352.486328125 L 2286.22021484375 11349.162109375 L 2261.9716796875 11326.3564453125 C 2261.438720703125 11325.880859375 2260.026123046875 11324.986328125 2259.246337890625 11324.986328125 C 2259.207763671875 11324.986328125 2259.18603515625 11324.9892578125 2259.177490234375 11324.9912109375 C 2259.11767578125 11325.03125 2258.190185546875 11325.71875 2257.61279296875 11329.1826171875 C 2257.131591796875 11332.0703125 2256.29736328125 11336.912109375 2255.2412109375 11343.04296875 C 2253.4375 11353.5126953125 2250.96728515625 11367.8515625 2249.002197265625 11379.7841796875 C 2245.91552734375 11398.525390625 2245.591552734375 11402.177734375 2245.595458984375 11402.8740234375 C 2245.603515625 11403.359375 2245.656494140625 11403.724609375 2245.71826171875 11403.9892578125 M 2245.2080078125 11408.2578125 C 2243.0224609375 11408.2578125 2241.648681640625 11406.1064453125 2241.595947265625 11402.9404296875 C 2241.513916015625 11397.97265625 2251.476318359375 11341.669921875 2253.667236328125 11328.525390625 C 2254.653076171875 11322.6123046875 2256.982421875 11320.986328125 2259.246337890625 11320.986328125 C 2262.013427734375 11320.986328125 2264.682861328125 11323.4150390625 2264.682861328125 11323.4150390625 L 2288.960693359375 11346.248046875 C 2288.960693359375 11346.248046875 2308.37158203125 11315.4755859375 2312.870361328125 11310.421875 C 2314.600830078125 11308.4765625 2316.387451171875 11307.486328125 2317.877197265625 11307.486328125 C 2320.260009765625 11307.486328125 2321.884521484375 11310.0205078125 2321.308837890625 11315.236328125 C 2320.37255859375 11323.7109375 2313.023193359375 11381.5703125 2311.1484375 11386.8896484375 C 2309.88916015625 11390.4599609375 2307.666748046875 11393.4609375 2304.03955078125 11393.4609375 C 2302.26416015625 11393.4609375 2300.152587890625 11392.7421875 2297.65185546875 11391.01953125 C 2290.041259765625 11385.779296875 2274.256591796875 11368.96875 2274.256591796875 11368.96875 C 2274.256591796875 11368.96875 2254.24658203125 11401.5498046875 2249.628662109375 11405.962890625 C 2247.955322265625 11407.5625 2246.450439453125 11408.2578125 2245.2080078125 11408.2578125 Z" stroke="none" fill="#fff"/>
  </g>
</svg>
