<!-- <svg xmlns="http://www.w3.org/2000/svg" xmlns:xlink="http://www.w3.org/1999/xlink" viewBox="0 0 130 130" id="el_75iwFBEzP"><style>@-webkit-keyframes kf_el_Z9ekNsK0PS_an_c5MUSeIn_{0%{-webkit-transform: translate(0px, 0px) translate(0px, 0px) translate(0px, 130px);transform: translate(0px, 0px) translate(0px, 0px) translate(0px, 130px);}50%{-webkit-transform: translate(0px, 0px) translate(0px, 0px) translate(0px, 60px);transform: translate(0px, 0px) translate(0px, 0px) translate(0px, 60px);}100%{-webkit-transform: translate(0px, 0px) translate(0px, 0px) translate(0px, 0px);transform: translate(0px, 0px) translate(0px, 0px) translate(0px, 0px);}}@keyframes kf_el_Z9ekNsK0PS_an_c5MUSeIn_{0%{-webkit-transform: translate(0px, 0px) translate(0px, 0px) translate(0px, 130px);transform: translate(0px, 0px) translate(0px, 0px) translate(0px, 130px);}50%{-webkit-transform: translate(0px, 0px) translate(0px, 0px) translate(0px, 60px);transform: translate(0px, 0px) translate(0px, 0px) translate(0px, 60px);}100%{-webkit-transform: translate(0px, 0px) translate(0px, 0px) translate(0px, 0px);transform: translate(0px, 0px) translate(0px, 0px) translate(0px, 0px);}}#el_75iwFBEzP *{-webkit-animation-duration: 1s;animation-duration: 1s;-webkit-animation-iteration-count: infinite;animation-iteration-count: infinite;-webkit-animation-timing-function: cubic-bezier(0, 0, 1, 1);animation-timing-function: cubic-bezier(0, 0, 1, 1);}#el_zCyLpAlDCm{-webkit-transform: translate(-1617px, -6704px);transform: translate(-1617px, -6704px);}#el_Z9ekNsK0PS{-webkit-transform: translate(1617px, 6704px);transform: translate(1617px, 6704px);fill: url(#linear-gradient);}#el_y-_rz3z0Bg{-webkit-transform: translate(1617px, 6704px);transform: translate(1617px, 6704px);fill: #353531;}#el_TLUZmRccYZ{-webkit-transform: translate(-611.485px, -4603.486px);transform: translate(-611.485px, -4603.486px);fill: none;}#el_DWesCOsU07{stroke: none;}#el_rtOfNabqSV{stroke: none;fill: #fff;}#el_Z9ekNsK0PS_an_c5MUSeIn_{-webkit-animation-fill-mode: backwards;animation-fill-mode: backwards;-webkit-transform: translate(0px, 0px) translate(0px, 0px) translate(0px, 130px);transform: translate(0px, 0px) translate(0px, 0px) translate(0px, 130px);-webkit-animation-name: kf_el_Z9ekNsK0PS_an_c5MUSeIn_;animation-name: kf_el_Z9ekNsK0PS_an_c5MUSeIn_;-webkit-animation-timing-function: cubic-bezier(0, 0, 1, 1);animation-timing-function: cubic-bezier(0, 0, 1, 1);}</style>
  <defs>
    <linearGradient id="linear-gradient" x1="0.5" x2="0.5" y2="1" gradientUnits="objectBoundingBox">
      <stop offset="0" stop-color="#f75c03"/>
      <stop offset="0.382" stop-color="#ff7600"/>
      <stop offset="1" stop-color="#faed27"/>
    </linearGradient>
  </defs>
  <g id="el_zCyLpAlDCm" data-name="Group 93">
    <g id="el_Z9ekNsK0PS_an_c5MUSeIn_" data-animator-group="true" data-animator-type="0"><rect id="el_Z9ekNsK0PS" data-name="Rectangle 1146" width="130" height="130"/></g>
    <path id="el_y-_rz3z0Bg" data-name="Exclusion 2" d="M130,130H17.893c1.675-.049,3.605-1.072,5.581-2.96,5.892-5.631,31.513-47.3,31.771-47.724.2.213,20.491,21.774,30.181,28.446,3.034,2.09,5.806,3.15,8.24,3.15,5.108,0,7.807-4.61,9.171-8.478C105.3,95.458,114.877,19.661,115.943,10a18.243,18.243,0,0,0-.1-5.4,6.862,6.862,0,0,0-1.477-3.315A3.733,3.733,0,0,0,111.632,0L130,0V130ZM17.652,130H0V0H111.4c-1.963.054-4.216,1.4-6.342,3.788C99.32,10.231,74.464,49.607,74.214,50L42.894,20.548c-.034-.031-3.485-3.133-7.013-3.132a5.392,5.392,0,0,0-4.217,2c-1.392,1.613-2.395,4.212-2.98,7.723-.618,3.706-1.691,9.935-3.05,17.822-4.715,27.368-12.606,73.169-12.523,78.177.068,4.09,1.851,6.782,4.541,6.859Z"/>
    <g id="el_TLUZmRccYZ" data-name="Path 294">
      <path d="M2241.6,11430.625c-.106-6.408,12.746-79.04,15.572-96s14.211-6.593,14.211-6.593l31.319,29.456s25.041-39.7,30.844-46.216,12.093-4.728,10.886,6.21-10.689,85.574-13.107,92.436-7.594,12.092-17.411,5.328-30.181-28.446-30.181-28.446-25.813,42.031-31.771,47.724S2241.7,11437.031,2241.6,11430.625Z" id="el_DWesCOsU07"/>
      <path d="M 2246.307373046875 11433.4833984375 C 2246.698974609375 11433.4482421875 2247.7314453125 11433.0322265625 2249.195068359375 11431.6337890625 C 2250.210693359375 11430.6630859375 2253.949462890625 11426.259765625 2266.705078125 11406.37890625 C 2273.80029296875 11395.3203125 2280.256591796875 11384.8134765625 2280.321044921875 11384.7080078125 L 2283.061279296875 11380.2470703125 L 2286.645263671875 11384.0634765625 C 2286.84619140625 11384.27734375 2306.8271484375 11405.513671875 2316.1796875 11411.9541015625 C 2318.5 11413.552734375 2320.564453125 11414.3974609375 2322.14990234375 11414.3974609375 C 2323.253662109375 11414.3974609375 2324.137939453125 11413.9951171875 2325.01708984375 11413.09375 C 2325.984130859375 11412.1015625 2326.859619140625 11410.5439453125 2327.548828125 11408.58984375 C 2327.88427734375 11407.638671875 2329.3671875 11401.66015625 2334.365234375 11364.693359375 C 2337.3232421875 11342.8134765625 2339.900634765625 11322.0439453125 2340.452880859375 11317.0458984375 C 2340.69970703125 11314.8095703125 2340.53759765625 11313.408203125 2340.358154296875 11312.6259765625 C 2340.2041015625 11311.955078125 2340.015380859375 11311.6259765625 2339.919921875 11311.4921875 C 2339.4677734375 11311.55078125 2338.200439453125 11312.056640625 2336.530029296875 11313.9345703125 C 2331.94970703125 11319.078125 2312.99755859375 11348.66015625 2306.081787109375 11359.6240234375 L 2303.492919921875 11363.728515625 L 2299.9580078125 11360.404296875 L 2268.66796875 11330.9755859375 C 2268.02880859375 11330.4033203125 2265.893310546875 11328.9013671875 2264.3662109375 11328.9013671875 C 2264.033447265625 11328.9013671875 2263.66748046875 11328.94921875 2263.17724609375 11329.517578125 C 2262.667236328125 11330.1083984375 2261.72119140625 11331.6435546875 2261.114013671875 11335.2841796875 C 2260.4931640625 11339.0107421875 2259.415283203125 11345.2666015625 2258.05078125 11353.1875 C 2255.715087890625 11366.7451171875 2252.516357421875 11385.3125 2249.977294921875 11400.736328125 C 2248.5966796875 11409.1220703125 2247.5283203125 11415.869140625 2246.8017578125 11420.791015625 C 2245.66064453125 11428.521484375 2245.590087890625 11430.2216796875 2245.595703125 11430.55859375 C 2245.626220703125 11432.4013671875 2246.10888671875 11433.26171875 2246.307373046875 11433.4833984375 M 2246.256103515625 11437.4853515625 C 2243.436279296875 11437.4853515625 2241.664306640625 11434.7099609375 2241.59619140625 11430.625 C 2241.490234375 11424.216796875 2254.34228515625 11351.5849609375 2257.16845703125 11334.626953125 C 2258.43994140625 11327 2261.4453125 11324.9013671875 2264.3662109375 11324.9013671875 C 2267.935791015625 11324.9013671875 2271.379150390625 11328.0341796875 2271.379150390625 11328.0341796875 L 2302.698486328125 11357.490234375 C 2302.698486328125 11357.490234375 2327.739013671875 11317.7919921875 2333.542724609375 11311.2744140625 C 2335.775146484375 11308.765625 2338.080322265625 11307.486328125 2340.00244140625 11307.486328125 C 2343.076416015625 11307.486328125 2345.17138671875 11310.7548828125 2344.4287109375 11317.484375 C 2343.220947265625 11328.4169921875 2333.739990234375 11403.05859375 2331.3212890625 11409.919921875 C 2329.697021484375 11414.525390625 2326.82958984375 11418.3974609375 2322.150146484375 11418.3974609375 C 2319.85986328125 11418.3974609375 2317.13623046875 11417.470703125 2313.91015625 11415.248046875 C 2304.09228515625 11408.4873046875 2283.7294921875 11386.8017578125 2283.7294921875 11386.8017578125 C 2283.7294921875 11386.8017578125 2257.916015625 11428.8330078125 2251.95849609375 11434.525390625 C 2249.800048828125 11436.5888671875 2247.85888671875 11437.4853515625 2246.256103515625 11437.4853515625 Z" id="el_rtOfNabqSV"/>
    </g>
  </g>
</svg> -->

<svg xmlns="http://www.w3.org/2000/svg" xmlns:xlink="http://www.w3.org/1999/xlink" viewBox="0 0 130 130" id="el_75iwFBEzP"><style>@-webkit-keyframes kf_el_Z9ekNsK0PS_an_c5MUSeIn_{0%{-webkit-transform: translate(0px, 0px) translate(0px, 0px) translate(0px, 130px);transform: translate(0px, 0px) translate(0px, 0px) translate(0px, 130px);}24.24%{-webkit-transform: translate(0px, 0px) translate(0px, 0px) translate(0px, 60px);transform: translate(0px, 0px) translate(0px, 0px) translate(0px, 60px);}60.61%{-webkit-transform: translate(0px, 0px) translate(0px, 0px) translate(0px, 0px);transform: translate(0px, 0px) translate(0px, 0px) translate(0px, 0px);}100%{-webkit-transform: translate(0px, 0px) translate(0px, 0px) translate(0px, 0px);transform: translate(0px, 0px) translate(0px, 0px) translate(0px, 0px);}}@keyframes kf_el_Z9ekNsK0PS_an_c5MUSeIn_{0%{-webkit-transform: translate(0px, 0px) translate(0px, 0px) translate(0px, 130px);transform: translate(0px, 0px) translate(0px, 0px) translate(0px, 130px);}24.24%{-webkit-transform: translate(0px, 0px) translate(0px, 0px) translate(0px, 60px);transform: translate(0px, 0px) translate(0px, 0px) translate(0px, 60px);}60.61%{-webkit-transform: translate(0px, 0px) translate(0px, 0px) translate(0px, 0px);transform: translate(0px, 0px) translate(0px, 0px) translate(0px, 0px);}100%{-webkit-transform: translate(0px, 0px) translate(0px, 0px) translate(0px, 0px);transform: translate(0px, 0px) translate(0px, 0px) translate(0px, 0px);}}#el_75iwFBEzP *{-webkit-animation-duration: 1.1s;animation-duration: 1.1s;-webkit-animation-iteration-count: infinite;animation-iteration-count: infinite;-webkit-animation-timing-function: cubic-bezier(0, 0, 1, 1);animation-timing-function: cubic-bezier(0, 0, 1, 1);}#el_zCyLpAlDCm{-webkit-transform: translate(-1617px, -6704px);transform: translate(-1617px, -6704px);}#el_Z9ekNsK0PS{-webkit-transform: translate(1617px, 6704px);transform: translate(1617px, 6704px);fill: url(#linear-gradient);}#el_y-_rz3z0Bg{-webkit-transform: translate(1617px, 6704px);transform: translate(1617px, 6704px);fill: #353531;}#el_TLUZmRccYZ{-webkit-transform: translate(-611.485px, -4603.486px);transform: translate(-611.485px, -4603.486px);fill: none;}#el_DWesCOsU07{stroke: none;}#el_rtOfNabqSV{stroke: none;fill: #fff;}#el_Z9ekNsK0PS_an_c5MUSeIn_{-webkit-animation-fill-mode: backwards;animation-fill-mode: backwards;-webkit-transform: translate(0px, 0px) translate(0px, 0px) translate(0px, 130px);transform: translate(0px, 0px) translate(0px, 0px) translate(0px, 130px);-webkit-animation-name: kf_el_Z9ekNsK0PS_an_c5MUSeIn_;animation-name: kf_el_Z9ekNsK0PS_an_c5MUSeIn_;-webkit-animation-timing-function: cubic-bezier(0, 0, 1, 1);animation-timing-function: cubic-bezier(0, 0, 1, 1);}</style>
  <defs>
    <linearGradient id="linear-gradient" x1="0.5" x2="0.5" y2="1" gradientUnits="objectBoundingBox">
      <stop offset="0" stop-color="#f75c03"/>
      <stop offset="0.382" stop-color="#ff7600"/>
      <stop offset="1" stop-color="#faed27"/>
    </linearGradient>
  </defs>
  <g id="el_zCyLpAlDCm" data-name="Group 93">
    <g id="el_Z9ekNsK0PS_an_c5MUSeIn_" data-animator-group="true" data-animator-type="0"><rect id="el_Z9ekNsK0PS" data-name="Rectangle 1146" width="130" height="130"/></g>
    <path id="el_y-_rz3z0Bg" data-name="Exclusion 2" d="M130,130H17.893c1.675-.049,3.605-1.072,5.581-2.96,5.892-5.631,31.513-47.3,31.771-47.724.2.213,20.491,21.774,30.181,28.446,3.034,2.09,5.806,3.15,8.24,3.15,5.108,0,7.807-4.61,9.171-8.478C105.3,95.458,114.877,19.661,115.943,10a18.243,18.243,0,0,0-.1-5.4,6.862,6.862,0,0,0-1.477-3.315A3.733,3.733,0,0,0,111.632,0L130,0V130ZM17.652,130H0V0H111.4c-1.963.054-4.216,1.4-6.342,3.788C99.32,10.231,74.464,49.607,74.214,50L42.894,20.548c-.034-.031-3.485-3.133-7.013-3.132a5.392,5.392,0,0,0-4.217,2c-1.392,1.613-2.395,4.212-2.98,7.723-.618,3.706-1.691,9.935-3.05,17.822-4.715,27.368-12.606,73.169-12.523,78.177.068,4.09,1.851,6.782,4.541,6.859Z"/>
    <g id="el_TLUZmRccYZ" data-name="Path 294">
      <path d="M2241.6,11430.625c-.106-6.408,12.746-79.04,15.572-96s14.211-6.593,14.211-6.593l31.319,29.456s25.041-39.7,30.844-46.216,12.093-4.728,10.886,6.21-10.689,85.574-13.107,92.436-7.594,12.092-17.411,5.328-30.181-28.446-30.181-28.446-25.813,42.031-31.771,47.724S2241.7,11437.031,2241.6,11430.625Z" id="el_DWesCOsU07"/>
      <path d="M 2246.307373046875 11433.4833984375 C 2246.698974609375 11433.4482421875 2247.7314453125 11433.0322265625 2249.195068359375 11431.6337890625 C 2250.210693359375 11430.6630859375 2253.949462890625 11426.259765625 2266.705078125 11406.37890625 C 2273.80029296875 11395.3203125 2280.256591796875 11384.8134765625 2280.321044921875 11384.7080078125 L 2283.061279296875 11380.2470703125 L 2286.645263671875 11384.0634765625 C 2286.84619140625 11384.27734375 2306.8271484375 11405.513671875 2316.1796875 11411.9541015625 C 2318.5 11413.552734375 2320.564453125 11414.3974609375 2322.14990234375 11414.3974609375 C 2323.253662109375 11414.3974609375 2324.137939453125 11413.9951171875 2325.01708984375 11413.09375 C 2325.984130859375 11412.1015625 2326.859619140625 11410.5439453125 2327.548828125 11408.58984375 C 2327.88427734375 11407.638671875 2329.3671875 11401.66015625 2334.365234375 11364.693359375 C 2337.3232421875 11342.8134765625 2339.900634765625 11322.0439453125 2340.452880859375 11317.0458984375 C 2340.69970703125 11314.8095703125 2340.53759765625 11313.408203125 2340.358154296875 11312.6259765625 C 2340.2041015625 11311.955078125 2340.015380859375 11311.6259765625 2339.919921875 11311.4921875 C 2339.4677734375 11311.55078125 2338.200439453125 11312.056640625 2336.530029296875 11313.9345703125 C 2331.94970703125 11319.078125 2312.99755859375 11348.66015625 2306.081787109375 11359.6240234375 L 2303.492919921875 11363.728515625 L 2299.9580078125 11360.404296875 L 2268.66796875 11330.9755859375 C 2268.02880859375 11330.4033203125 2265.893310546875 11328.9013671875 2264.3662109375 11328.9013671875 C 2264.033447265625 11328.9013671875 2263.66748046875 11328.94921875 2263.17724609375 11329.517578125 C 2262.667236328125 11330.1083984375 2261.72119140625 11331.6435546875 2261.114013671875 11335.2841796875 C 2260.4931640625 11339.0107421875 2259.415283203125 11345.2666015625 2258.05078125 11353.1875 C 2255.715087890625 11366.7451171875 2252.516357421875 11385.3125 2249.977294921875 11400.736328125 C 2248.5966796875 11409.1220703125 2247.5283203125 11415.869140625 2246.8017578125 11420.791015625 C 2245.66064453125 11428.521484375 2245.590087890625 11430.2216796875 2245.595703125 11430.55859375 C 2245.626220703125 11432.4013671875 2246.10888671875 11433.26171875 2246.307373046875 11433.4833984375 M 2246.256103515625 11437.4853515625 C 2243.436279296875 11437.4853515625 2241.664306640625 11434.7099609375 2241.59619140625 11430.625 C 2241.490234375 11424.216796875 2254.34228515625 11351.5849609375 2257.16845703125 11334.626953125 C 2258.43994140625 11327 2261.4453125 11324.9013671875 2264.3662109375 11324.9013671875 C 2267.935791015625 11324.9013671875 2271.379150390625 11328.0341796875 2271.379150390625 11328.0341796875 L 2302.698486328125 11357.490234375 C 2302.698486328125 11357.490234375 2327.739013671875 11317.7919921875 2333.542724609375 11311.2744140625 C 2335.775146484375 11308.765625 2338.080322265625 11307.486328125 2340.00244140625 11307.486328125 C 2343.076416015625 11307.486328125 2345.17138671875 11310.7548828125 2344.4287109375 11317.484375 C 2343.220947265625 11328.4169921875 2333.739990234375 11403.05859375 2331.3212890625 11409.919921875 C 2329.697021484375 11414.525390625 2326.82958984375 11418.3974609375 2322.150146484375 11418.3974609375 C 2319.85986328125 11418.3974609375 2317.13623046875 11417.470703125 2313.91015625 11415.248046875 C 2304.09228515625 11408.4873046875 2283.7294921875 11386.8017578125 2283.7294921875 11386.8017578125 C 2283.7294921875 11386.8017578125 2257.916015625 11428.8330078125 2251.95849609375 11434.525390625 C 2249.800048828125 11436.5888671875 2247.85888671875 11437.4853515625 2246.256103515625 11437.4853515625 Z" id="el_rtOfNabqSV"/>
    </g>
  </g>
</svg>